<mxfile host="app.diagrams.net" modified="2023-07-26T15:57:42.912Z" agent="Mozilla/5.0 (Windows NT 10.0; Win64; x64) AppleWebKit/537.36 (KHTML, like Gecko) Chrome/114.0.0.0 Safari/537.36" etag="NXUknp62AmgchCUCQD_z" version="21.6.5" type="github">
  <diagram name="Page-1" id="cniy4X4JsxwCNDspFC5X">
    <mxGraphModel dx="1434" dy="802" grid="1" gridSize="10" guides="1" tooltips="1" connect="1" arrows="1" fold="1" page="1" pageScale="1" pageWidth="850" pageHeight="1100" math="0" shadow="0">
      <root>
        <mxCell id="0" />
        <mxCell id="1" parent="0" />
        <mxCell id="i82l4AqUnnjgsAyyBW5v-1" value="Start Process/Prefill Detailed Endpoints" style="text;strokeColor=none;fillColor=none;html=1;fontSize=24;fontStyle=1;verticalAlign=middle;align=center;" parent="1" vertex="1">
          <mxGeometry x="375" y="40" width="100" height="40" as="geometry" />
        </mxCell>
        <mxCell id="_vuxWC5ONF64F9iMfI1i-15" style="edgeStyle=orthogonalEdgeStyle;rounded=0;orthogonalLoop=1;jettySize=auto;html=1;" edge="1" parent="1" source="i82l4AqUnnjgsAyyBW5v-2" target="i82l4AqUnnjgsAyyBW5v-6">
          <mxGeometry relative="1" as="geometry" />
        </mxCell>
        <mxCell id="i82l4AqUnnjgsAyyBW5v-2" value="GET - /access/impersonate" style="swimlane;fontStyle=1;align=center;verticalAlign=top;childLayout=stackLayout;horizontal=1;startSize=26;horizontalStack=0;resizeParent=1;resizeParentMax=0;resizeLast=0;collapsible=1;marginBottom=0;whiteSpace=wrap;html=1;" parent="1" vertex="1">
          <mxGeometry x="590" y="100" width="240" height="160" as="geometry" />
        </mxCell>
        <mxCell id="i82l4AqUnnjgsAyyBW5v-3" value="+ key: API user key&lt;br&gt;+ user: Who this interaction is going to be &lt;span style=&quot;white-space: pre;&quot;&gt;&#x9;&lt;/span&gt;impersonated by&lt;br&gt;+ expires: EPOCH date of expiration" style="text;strokeColor=none;fillColor=none;align=left;verticalAlign=top;spacingLeft=4;spacingRight=4;overflow=hidden;rotatable=0;points=[[0,0.5],[1,0.5]];portConstraint=eastwest;whiteSpace=wrap;html=1;" parent="i82l4AqUnnjgsAyyBW5v-2" vertex="1">
          <mxGeometry y="26" width="240" height="74" as="geometry" />
        </mxCell>
        <mxCell id="i82l4AqUnnjgsAyyBW5v-4" value="" style="line;strokeWidth=1;fillColor=none;align=left;verticalAlign=middle;spacingTop=-1;spacingLeft=3;spacingRight=3;rotatable=0;labelPosition=right;points=[];portConstraint=eastwest;strokeColor=inherit;" parent="i82l4AqUnnjgsAyyBW5v-2" vertex="1">
          <mxGeometry y="100" width="240" height="8" as="geometry" />
        </mxCell>
        <mxCell id="i82l4AqUnnjgsAyyBW5v-5" value="+ token: access token to be used in &lt;span style=&quot;white-space: pre;&quot;&gt;&#x9;&lt;/span&gt;subsequent calls" style="text;strokeColor=none;fillColor=none;align=left;verticalAlign=top;spacingLeft=4;spacingRight=4;overflow=hidden;rotatable=0;points=[[0,0.5],[1,0.5]];portConstraint=eastwest;whiteSpace=wrap;html=1;" parent="i82l4AqUnnjgsAyyBW5v-2" vertex="1">
          <mxGeometry y="108" width="240" height="52" as="geometry" />
        </mxCell>
        <mxCell id="i82l4AqUnnjgsAyyBW5v-6" value="GET - /instances/:proccess_sid/start" style="swimlane;fontStyle=1;align=center;verticalAlign=top;childLayout=stackLayout;horizontal=1;startSize=26;horizontalStack=0;resizeParent=1;resizeParentMax=0;resizeLast=0;collapsible=1;marginBottom=0;whiteSpace=wrap;html=1;" parent="1" vertex="1">
          <mxGeometry x="610" y="350.5" width="230" height="130" as="geometry" />
        </mxCell>
        <mxCell id="i82l4AqUnnjgsAyyBW5v-7" value="+ key: API user key&lt;br&gt;+ token: access token&lt;br&gt;+ process_sid" style="text;strokeColor=none;fillColor=none;align=left;verticalAlign=top;spacingLeft=4;spacingRight=4;overflow=hidden;rotatable=0;points=[[0,0.5],[1,0.5]];portConstraint=eastwest;whiteSpace=wrap;html=1;" parent="i82l4AqUnnjgsAyyBW5v-6" vertex="1">
          <mxGeometry y="26" width="230" height="54" as="geometry" />
        </mxCell>
        <mxCell id="i82l4AqUnnjgsAyyBW5v-8" value="" style="line;strokeWidth=1;fillColor=none;align=left;verticalAlign=middle;spacingTop=-1;spacingLeft=3;spacingRight=3;rotatable=0;labelPosition=right;points=[];portConstraint=eastwest;strokeColor=inherit;" parent="i82l4AqUnnjgsAyyBW5v-6" vertex="1">
          <mxGeometry y="80" width="230" height="8" as="geometry" />
        </mxCell>
        <mxCell id="i82l4AqUnnjgsAyyBW5v-9" value="+ &quot;SID&quot;: instance SID to reference in &lt;span style=&quot;white-space: pre;&quot;&gt;&#x9;&lt;/span&gt;subsequent calls" style="text;strokeColor=none;fillColor=none;align=left;verticalAlign=top;spacingLeft=4;spacingRight=4;overflow=hidden;rotatable=0;points=[[0,0.5],[1,0.5]];portConstraint=eastwest;whiteSpace=wrap;html=1;" parent="i82l4AqUnnjgsAyyBW5v-6" vertex="1">
          <mxGeometry y="88" width="230" height="42" as="geometry" />
        </mxCell>
        <mxCell id="_vuxWC5ONF64F9iMfI1i-18" style="edgeStyle=orthogonalEdgeStyle;rounded=0;orthogonalLoop=1;jettySize=auto;html=1;entryX=0.542;entryY=-0.004;entryDx=0;entryDy=0;entryPerimeter=0;" edge="1" parent="1" source="i82l4AqUnnjgsAyyBW5v-34" target="i82l4AqUnnjgsAyyBW5v-44">
          <mxGeometry relative="1" as="geometry" />
        </mxCell>
        <mxCell id="i82l4AqUnnjgsAyyBW5v-34" value="GET - /instance/:instance_sid/&lt;br&gt;tasks/:task_sid/reciptasks/:status" style="swimlane;fontStyle=1;align=center;verticalAlign=top;childLayout=stackLayout;horizontal=1;startSize=40;horizontalStack=0;resizeParent=1;resizeParentMax=0;resizeLast=0;collapsible=1;marginBottom=0;whiteSpace=wrap;html=1;" parent="1" vertex="1">
          <mxGeometry x="20" y="345.5" width="240" height="158" as="geometry" />
        </mxCell>
        <mxCell id="i82l4AqUnnjgsAyyBW5v-35" value="+ key: API user key&lt;br&gt;+ token: access token&lt;br&gt;+ instance_sid&lt;br&gt;+ task sid" style="text;strokeColor=none;fillColor=none;align=left;verticalAlign=top;spacingLeft=4;spacingRight=4;overflow=hidden;rotatable=0;points=[[0,0.5],[1,0.5]];portConstraint=eastwest;whiteSpace=wrap;html=1;" parent="i82l4AqUnnjgsAyyBW5v-34" vertex="1">
          <mxGeometry y="40" width="240" height="70" as="geometry" />
        </mxCell>
        <mxCell id="i82l4AqUnnjgsAyyBW5v-36" value="" style="line;strokeWidth=1;fillColor=none;align=left;verticalAlign=middle;spacingTop=-1;spacingLeft=3;spacingRight=3;rotatable=0;labelPosition=right;points=[];portConstraint=eastwest;strokeColor=inherit;" parent="i82l4AqUnnjgsAyyBW5v-34" vertex="1">
          <mxGeometry y="110" width="240" height="8" as="geometry" />
        </mxCell>
        <mxCell id="i82l4AqUnnjgsAyyBW5v-37" value="+ &quot;SID&quot;: reciptask_sid" style="text;strokeColor=none;fillColor=none;align=left;verticalAlign=top;spacingLeft=4;spacingRight=4;overflow=hidden;rotatable=0;points=[[0,0.5],[1,0.5]];portConstraint=eastwest;whiteSpace=wrap;html=1;" parent="i82l4AqUnnjgsAyyBW5v-34" vertex="1">
          <mxGeometry y="118" width="240" height="40" as="geometry" />
        </mxCell>
        <mxCell id="_vuxWC5ONF64F9iMfI1i-17" style="edgeStyle=orthogonalEdgeStyle;rounded=0;orthogonalLoop=1;jettySize=auto;html=1;entryX=1;entryY=0.5;entryDx=0;entryDy=0;" edge="1" parent="1" source="i82l4AqUnnjgsAyyBW5v-39" target="i82l4AqUnnjgsAyyBW5v-35">
          <mxGeometry relative="1" as="geometry" />
        </mxCell>
        <mxCell id="i82l4AqUnnjgsAyyBW5v-39" value="GET - /instances/:instance_sid/tasks" style="swimlane;fontStyle=1;align=center;verticalAlign=top;childLayout=stackLayout;horizontal=1;startSize=26;horizontalStack=0;resizeParent=1;resizeParentMax=0;resizeLast=0;collapsible=1;marginBottom=0;whiteSpace=wrap;html=1;" parent="1" vertex="1">
          <mxGeometry x="320" y="350.5" width="240" height="140" as="geometry" />
        </mxCell>
        <mxCell id="i82l4AqUnnjgsAyyBW5v-40" value="+ key: API user key&lt;br&gt;+ token: access token&lt;br&gt;+ instance_sid" style="text;strokeColor=none;fillColor=none;align=left;verticalAlign=top;spacingLeft=4;spacingRight=4;overflow=hidden;rotatable=0;points=[[0,0.5],[1,0.5]];portConstraint=eastwest;whiteSpace=wrap;html=1;" parent="i82l4AqUnnjgsAyyBW5v-39" vertex="1">
          <mxGeometry y="26" width="240" height="54" as="geometry" />
        </mxCell>
        <mxCell id="i82l4AqUnnjgsAyyBW5v-41" value="" style="line;strokeWidth=1;fillColor=none;align=left;verticalAlign=middle;spacingTop=-1;spacingLeft=3;spacingRight=3;rotatable=0;labelPosition=right;points=[];portConstraint=eastwest;strokeColor=inherit;" parent="i82l4AqUnnjgsAyyBW5v-39" vertex="1">
          <mxGeometry y="80" width="240" height="8" as="geometry" />
        </mxCell>
        <mxCell id="i82l4AqUnnjgsAyyBW5v-42" value="&quot;task_type_name&quot; = &quot;Data Container&quot;&lt;br&gt;+ SID: task sid" style="text;strokeColor=none;fillColor=none;align=left;verticalAlign=top;spacingLeft=4;spacingRight=4;overflow=hidden;rotatable=0;points=[[0,0.5],[1,0.5]];portConstraint=eastwest;whiteSpace=wrap;html=1;" parent="i82l4AqUnnjgsAyyBW5v-39" vertex="1">
          <mxGeometry y="88" width="240" height="52" as="geometry" />
        </mxCell>
        <mxCell id="i82l4AqUnnjgsAyyBW5v-44" value="POST - /tasktypes/data-container/&lt;br&gt;instances/tasks/reciptasks/:reciptask_sid" style="swimlane;fontStyle=1;align=center;verticalAlign=top;childLayout=stackLayout;horizontal=1;startSize=35;horizontalStack=0;resizeParent=1;resizeParentMax=0;resizeLast=0;collapsible=1;marginBottom=0;whiteSpace=wrap;html=1;" parent="1" vertex="1">
          <mxGeometry y="570" width="260" height="270" as="geometry" />
        </mxCell>
        <mxCell id="i82l4AqUnnjgsAyyBW5v-45" value="+ key: API user key&lt;br&gt;+ token: access token&lt;br&gt;+ reciptask_sid&lt;br&gt;&lt;br&gt;&lt;b&gt;BODY: (POST DATA)&lt;br&gt;{&lt;br&gt;&lt;span style=&quot;white-space: pre;&quot;&gt;&#x9;&lt;/span&gt;field_name: value,&lt;span style=&quot;white-space: pre;&quot;&gt;&#x9;&lt;/span&gt;&lt;br&gt;}&lt;br&gt;&lt;/b&gt;" style="text;strokeColor=none;fillColor=none;align=left;verticalAlign=top;spacingLeft=4;spacingRight=4;overflow=hidden;rotatable=0;points=[[0,0.5],[1,0.5]];portConstraint=eastwest;whiteSpace=wrap;html=1;" parent="i82l4AqUnnjgsAyyBW5v-44" vertex="1">
          <mxGeometry y="35" width="260" height="135" as="geometry" />
        </mxCell>
        <mxCell id="i82l4AqUnnjgsAyyBW5v-46" value="" style="line;strokeWidth=1;fillColor=none;align=left;verticalAlign=middle;spacingTop=-1;spacingLeft=3;spacingRight=3;rotatable=0;labelPosition=right;points=[];portConstraint=eastwest;strokeColor=inherit;" parent="i82l4AqUnnjgsAyyBW5v-44" vertex="1">
          <mxGeometry y="170" width="260" height="8" as="geometry" />
        </mxCell>
        <mxCell id="i82l4AqUnnjgsAyyBW5v-47" value="Response:&lt;br&gt;{&lt;br&gt;&lt;span style=&quot;white-space: pre;&quot;&gt;&#x9;&lt;/span&gt;key,&lt;br&gt;&lt;span style=&quot;white-space: pre;&quot;&gt;&#x9;&lt;/span&gt;label,&lt;br&gt;&lt;span style=&quot;white-space: pre;&quot;&gt;&#x9;&lt;/span&gt;value&lt;br&gt;}" style="text;strokeColor=none;fillColor=none;align=left;verticalAlign=top;spacingLeft=4;spacingRight=4;overflow=hidden;rotatable=0;points=[[0,0.5],[1,0.5]];portConstraint=eastwest;whiteSpace=wrap;html=1;" parent="i82l4AqUnnjgsAyyBW5v-44" vertex="1">
          <mxGeometry y="178" width="260" height="92" as="geometry" />
        </mxCell>
        <mxCell id="_vuxWC5ONF64F9iMfI1i-5" value="GET /users" style="swimlane;fontStyle=1;align=center;verticalAlign=top;childLayout=stackLayout;horizontal=1;startSize=26;horizontalStack=0;resizeParent=1;resizeParentMax=0;resizeLast=0;collapsible=1;marginBottom=0;whiteSpace=wrap;html=1;" vertex="1" parent="1">
          <mxGeometry x="350" y="100" width="160" height="148" as="geometry" />
        </mxCell>
        <mxCell id="_vuxWC5ONF64F9iMfI1i-6" value="+ key: API user key&lt;br&gt;+ token: access token&lt;br&gt;PARAM: name" style="text;strokeColor=none;fillColor=none;align=left;verticalAlign=top;spacingLeft=4;spacingRight=4;overflow=hidden;rotatable=0;points=[[0,0.5],[1,0.5]];portConstraint=eastwest;whiteSpace=wrap;html=1;" vertex="1" parent="_vuxWC5ONF64F9iMfI1i-5">
          <mxGeometry y="26" width="160" height="54" as="geometry" />
        </mxCell>
        <mxCell id="_vuxWC5ONF64F9iMfI1i-7" value="" style="line;strokeWidth=1;fillColor=none;align=left;verticalAlign=middle;spacingTop=-1;spacingLeft=3;spacingRight=3;rotatable=0;labelPosition=right;points=[];portConstraint=eastwest;strokeColor=inherit;" vertex="1" parent="_vuxWC5ONF64F9iMfI1i-5">
          <mxGeometry y="80" width="160" height="8" as="geometry" />
        </mxCell>
        <mxCell id="_vuxWC5ONF64F9iMfI1i-8" value="+ UserName: username for &lt;span style=&quot;white-space: pre;&quot;&gt;&#x9;&lt;/span&gt;the user" style="text;strokeColor=none;fillColor=none;align=left;verticalAlign=top;spacingLeft=4;spacingRight=4;overflow=hidden;rotatable=0;points=[[0,0.5],[1,0.5]];portConstraint=eastwest;whiteSpace=wrap;html=1;" vertex="1" parent="_vuxWC5ONF64F9iMfI1i-5">
          <mxGeometry y="88" width="160" height="60" as="geometry" />
        </mxCell>
        <mxCell id="_vuxWC5ONF64F9iMfI1i-9" value="GET - /access/impersonate" style="swimlane;fontStyle=1;align=center;verticalAlign=top;childLayout=stackLayout;horizontal=1;startSize=26;horizontalStack=0;resizeParent=1;resizeParentMax=0;resizeLast=0;collapsible=1;marginBottom=0;whiteSpace=wrap;html=1;" vertex="1" parent="1">
          <mxGeometry x="20" y="100" width="240" height="160" as="geometry" />
        </mxCell>
        <mxCell id="_vuxWC5ONF64F9iMfI1i-10" value="+ key: API user key&lt;br&gt;+ user: DEFAULT USER&lt;br&gt;+ expires: EPOCH date of expiration" style="text;strokeColor=none;fillColor=none;align=left;verticalAlign=top;spacingLeft=4;spacingRight=4;overflow=hidden;rotatable=0;points=[[0,0.5],[1,0.5]];portConstraint=eastwest;whiteSpace=wrap;html=1;" vertex="1" parent="_vuxWC5ONF64F9iMfI1i-9">
          <mxGeometry y="26" width="240" height="74" as="geometry" />
        </mxCell>
        <mxCell id="_vuxWC5ONF64F9iMfI1i-11" value="" style="line;strokeWidth=1;fillColor=none;align=left;verticalAlign=middle;spacingTop=-1;spacingLeft=3;spacingRight=3;rotatable=0;labelPosition=right;points=[];portConstraint=eastwest;strokeColor=inherit;" vertex="1" parent="_vuxWC5ONF64F9iMfI1i-9">
          <mxGeometry y="100" width="240" height="8" as="geometry" />
        </mxCell>
        <mxCell id="_vuxWC5ONF64F9iMfI1i-12" value="+ token: access token to be used in &lt;span style=&quot;white-space: pre;&quot;&gt;&#x9;&lt;/span&gt;subsequent calls" style="text;strokeColor=none;fillColor=none;align=left;verticalAlign=top;spacingLeft=4;spacingRight=4;overflow=hidden;rotatable=0;points=[[0,0.5],[1,0.5]];portConstraint=eastwest;whiteSpace=wrap;html=1;" vertex="1" parent="_vuxWC5ONF64F9iMfI1i-9">
          <mxGeometry y="108" width="240" height="52" as="geometry" />
        </mxCell>
        <mxCell id="_vuxWC5ONF64F9iMfI1i-13" style="edgeStyle=orthogonalEdgeStyle;rounded=0;orthogonalLoop=1;jettySize=auto;html=1;entryX=0.013;entryY=0.685;entryDx=0;entryDy=0;entryPerimeter=0;" edge="1" parent="1" source="_vuxWC5ONF64F9iMfI1i-10" target="_vuxWC5ONF64F9iMfI1i-6">
          <mxGeometry relative="1" as="geometry" />
        </mxCell>
        <mxCell id="_vuxWC5ONF64F9iMfI1i-14" style="edgeStyle=orthogonalEdgeStyle;rounded=0;orthogonalLoop=1;jettySize=auto;html=1;" edge="1" parent="1" source="_vuxWC5ONF64F9iMfI1i-6" target="i82l4AqUnnjgsAyyBW5v-3">
          <mxGeometry relative="1" as="geometry" />
        </mxCell>
        <mxCell id="_vuxWC5ONF64F9iMfI1i-16" style="edgeStyle=orthogonalEdgeStyle;rounded=0;orthogonalLoop=1;jettySize=auto;html=1;entryX=1;entryY=0.5;entryDx=0;entryDy=0;" edge="1" parent="1" source="i82l4AqUnnjgsAyyBW5v-7" target="i82l4AqUnnjgsAyyBW5v-40">
          <mxGeometry relative="1" as="geometry" />
        </mxCell>
      </root>
    </mxGraphModel>
  </diagram>
</mxfile>
